<svg width="160" height="160" viewBox="0 0 160 160" fill="none" xmlns="http://www.w3.org/2000/svg">
  <defs>
    <linearGradient id="bg" x1="0" y1="0" x2="160" y2="160" gradientUnits="userSpaceOnUse">
      <stop offset="0" stop-color="#1e3a8a"/>
      <stop offset="1" stop-color="#0ea5e9"/>
    </linearGradient>
  </defs>
  <!-- chat bubble -->
  <path d="M24 20h112c8.837 0 16 7.163 16 16v76c0 8.837-7.163 16-16 16H72l-28 24v-24H24c-8.837 0-16-7.163-16-16V36c0-8.837 7.163-16 16-16z" fill="url(#bg)"/>
  <!-- bar chart -->
  <rect x="38" y="78" width="16" height="34" rx="4" fill="#ffffff" fill-opacity="0.65"/>
  <rect x="62" y="60" width="16" height="52" rx="4" fill="#ffffff" fill-opacity="0.8"/>
  <rect x="86" y="70" width="16" height="42" rx="4" fill="#ffffff" fill-opacity="0.65"/>
  <rect x="110" y="44" width="16" height="68" rx="4" fill="#ffffff"/>
  <!-- trend spark -->
  <path d="M40 66 L70 48 L94 56 L122 32" stroke="#a7f3d0" stroke-width="6" stroke-linecap="round" stroke-linejoin="round" fill="none"/>
  <circle cx="122" cy="32" r="7" fill="#a7f3d0"/>
</svg>
